<?xml version="1.0" standalone="no"?>
<!DOCTYPE svg PUBLIC "-//W3C//DTD SVG 20010904//EN"
 "http://www.w3.org/TR/2001/REC-SVG-20010904/DTD/svg10.dtd">
<svg version="1.0" xmlns="http://www.w3.org/2000/svg"
 width="259.000000pt" height="259.000000pt" viewBox="0 0 259.000000 259.000000"
 preserveAspectRatio="xMidYMid meet">
<metadata>
Created by potrace 1.11, written by Peter Selinger 2001-2013
</metadata>
<g transform="translate(0.000000,259.000000) scale(0.100000,-0.100000)"
fill="#000000" stroke="none">
<path d="M2069 2495 c-2 -1 -26 -6 -53 -9 -27 -4 -57 -11 -68 -17 -10 -5 -18
-7 -18 -3 0 3 -6 2 -12 -4 -7 -6 -17 -11 -23 -12 -18 -4 -40 -12 -72 -26 -17
-8 -36 -14 -43 -14 -7 0 -26 -10 -43 -22 -18 -13 -33 -21 -34 -18 -1 3 -12 -3
-24 -13 -11 -10 -23 -16 -25 -14 -3 3 -17 -7 -33 -22 -45 -42 -95 -81 -104
-81 -4 0 -6 -4 -2 -9 3 -5 -4 -12 -15 -16 -11 -4 -19 -9 -17 -13 4 -10 -51
-61 -57 -54 -4 3 -6 -1 -6 -8 0 -7 -10 -21 -22 -31 -11 -11 -18 -19 -15 -19 3
0 -12 -18 -33 -40 -22 -23 -40 -44 -40 -48 0 -4 -11 -20 -25 -35 -14 -15 -23
-27 -20 -27 3 0 -5 -10 -18 -22 -24 -23 -27 -28 -27 -49 0 -5 -4 -7 -10 -4 -5
3 -10 0 -10 -8 0 -8 -9 -24 -20 -37 -11 -13 -20 -26 -20 -30 0 -4 -9 -17 -20
-30 -11 -12 -17 -27 -14 -31 3 -5 1 -9 -4 -9 -5 0 -19 -20 -32 -45 -13 -25
-27 -45 -31 -45 -5 0 -6 -7 -3 -15 4 -8 1 -15 -6 -15 -6 0 -9 -4 -5 -9 3 -5 0
-15 -7 -23 -7 -7 -20 -26 -28 -43 -14 -28 -120 -143 -120 -130 0 3 -9 1 -20
-5 -12 -6 -35 -13 -53 -15 -18 -2 -45 -7 -62 -10 -16 -3 -39 -7 -50 -8 -26 -3
-125 -52 -153 -74 -12 -10 -32 -27 -45 -38 -14 -11 -23 -23 -20 -28 2 -4 -3
-10 -11 -13 -9 -3 -16 -13 -16 -21 0 -8 -5 -11 -10 -8 -6 4 -10 3 -9 -2 3 -15
-13 -93 -20 -93 -3 0 -7 -17 -8 -38 -3 -93 -7 -123 -15 -128 -4 -3 -4 -13 0
-22 9 -19 8 -59 -1 -69 -4 -3 -2 -14 3 -24 6 -10 7 -20 2 -23 -9 -6 -8 -48 2
-64 4 -7 4 -12 -1 -12 -4 0 -8 -11 -8 -25 0 -14 4 -25 8 -25 5 0 5 -6 0 -12
-11 -18 -11 -78 -1 -78 5 0 6 -6 2 -12 -12 -19 -10 -54 4 -71 11 -12 19 -13
45 -3 18 6 34 14 37 17 6 8 53 24 63 21 4 -1 7 2 7 7 0 5 15 14 33 22 17 7 34
15 37 18 13 15 68 40 74 34 3 -3 6 -2 6 4 0 5 18 18 40 28 22 10 40 21 40 24
0 8 74 31 100 31 22 0 78 -33 125 -74 17 -14 34 -26 38 -26 5 0 5 -4 2 -10 -3
-5 0 -10 8 -10 17 0 77 -55 78 -73 6 -60 4 -225 -2 -238 -5 -9 -5 -19 -1 -23
3 -4 7 -42 8 -84 2 -147 0 -142 34 -142 29 0 99 27 111 43 3 5 8 8 10 7 7 -3
64 24 77 37 12 12 19 14 37 13 3 -1 13 6 21 15 9 8 22 15 30 15 8 0 14 4 14 8
0 5 23 19 50 32 28 13 50 27 50 32 0 4 5 8 11 8 7 0 18 8 26 18 10 11 12 12 8
2 -4 -8 1 -6 10 5 9 11 17 18 18 15 5 -10 137 116 135 129 -1 3 4 20 11 36 30
71 31 230 2 282 -6 13 -9 23 -6 23 3 0 -2 11 -11 25 -9 14 -13 25 -9 25 4 0 3
6 -2 13 -14 18 -7 106 10 134 5 7 5 17 2 23 -3 6 -1 10 5 10 6 0 9 4 6 8 -3 5
4 19 15 30 11 12 17 22 14 22 -7 0 47 74 58 78 4 2 7 10 7 17 0 8 8 19 18 24
9 6 13 11 9 11 -4 0 6 20 23 44 16 25 30 49 30 55 0 6 4 11 8 11 4 0 14 16 21
35 7 19 16 35 21 35 8 0 25 48 22 63 -1 4 2 7 6 7 5 0 17 20 28 45 10 25 21
45 24 45 4 0 7 6 7 13 0 6 9 32 20 57 11 25 25 59 31 75 6 17 17 44 23 60 13
33 15 39 23 73 3 12 9 32 12 45 3 12 8 34 11 50 3 15 10 27 16 27 8 0 7 4 -1
12 -6 6 -8 18 -3 27 4 9 7 25 7 36 -1 11 4 23 9 27 6 5 6 8 -2 8 -8 0 -9 9 -4
28 5 15 5 36 2 47 -4 11 -7 39 -6 63 0 23 -2 42 -6 42 -3 0 -5 16 -4 36 1 19
-2 37 -6 40 -5 2 -6 11 -2 19 3 8 1 15 -3 15 -5 0 -10 19 -11 41 -2 23 -7 47
-12 53 -5 6 -11 22 -13 35 -3 27 -38 70 -50 64 -5 -2 -8 1 -8 8 0 7 -3 10 -6
6 -3 -3 -16 -2 -29 3 -13 5 -25 7 -26 5z m-235 -502 c103 -53 129 -211 50
-299 -49 -54 -138 -78 -206 -55 -40 13 -96 64 -110 100 -38 99 -10 201 71 253
42 27 51 29 105 23 33 -4 73 -13 90 -22z"/>
</g>
</svg>
