<?xml version="1.0" encoding="iso-8859-1"?>
<!-- Generator: Adobe Illustrator 16.0.0, SVG Export Plug-In . SVG Version: 6.00 Build 0)  -->
<!DOCTYPE svg PUBLIC "-//W3C//DTD SVG 1.1//EN" "http://www.w3.org/Graphics/SVG/1.1/DTD/svg11.dtd">
<svg version="1.1" id="Capa_1" xmlns="http://www.w3.org/2000/svg" xmlns:xlink="http://www.w3.org/1999/xlink" x="0px" y="0px"
	 width="26.9px" height="26.9px" viewBox="0 0 34.269 34.269" style="enable-background:new 0 0 34.269 34.269;"
	 xml:space="preserve">
<g>
	<path d="M16.755,20.297c0,1.34-0.783,2.012-2.347,2.012h-0.35v-3.817c1.102,0,1.828,0.119,2.177,0.352
		C16.582,19.076,16.755,19.557,16.755,20.297z M34.269,12.214h-8.721c0.174,0.434,0.321,0.879,0.448,1.333h8.271v2h-7.871
		c0.053,0.438,0.084,0.883,0.092,1.333h7.777v2h-7.895c-0.045,0.336-0.092,0.672-0.16,1h8.055v2h-8.656
		c-0.176,0.457-0.371,0.902-0.596,1.334h9.252v2H23.736c-0.361,0.467-0.744,0.918-1.164,1.332h11.694v2H19.958
		c-1.97,1.162-4.258,1.838-6.708,1.838C5.933,30.384,0,24.451,0,17.134c0-7.319,5.933-13.25,13.25-13.25
		c4.778,0,8.953,2.537,11.283,6.329h9.733v2.002L34.269,12.214L34.269,12.214z M19.22,20.254c0-1.414-0.316-2.391-0.953-2.919
		c-0.634-0.534-1.856-0.848-3.667-0.948l-0.542-0.022v-3.607h0.381c1.337,0,2.004,0.534,2.004,1.604l0.009,0.261h2.356V14.29
		c0-1.415-0.336-2.385-1.006-2.904c-0.672-0.521-1.919-0.78-3.746-0.78V9.202h-1.644v1.403c-1.91,0-3.219,0.271-3.923,0.816
		c-0.707,0.543-1.06,1.555-1.06,3.03c0,1.522,0.353,2.562,1.054,3.119c0.702,0.553,2.011,0.83,3.929,0.83v3.909l-0.36-0.008
		c-0.983,0-1.617-0.129-1.899-0.388c-0.284-0.258-0.426-0.829-0.426-1.721v-0.248H7.291l-0.011,0.49c0,1.455,0.348,2.48,1.049,3.068
		c0.696,0.586,1.906,0.881,3.622,0.881l0.461,0.012v1.613h1.644v-1.613l0.5-0.012c1.724,0,2.933-0.311,3.625-0.92
		C18.874,22.846,19.22,21.779,19.22,20.254z M9.9,14.471c0,1.196,0.717,1.794,2.155,1.794c0.014,0,0.132,0.004,0.36,0.018v-3.535
		l-0.351,0.01C10.618,12.758,9.9,13.329,9.9,14.471z"/>
</g>
<g>
</g>
<g>
</g>
<g>
</g>
<g>
</g>
<g>
</g>
<g>
</g>
<g>
</g>
<g>
</g>
<g>
</g>
<g>
</g>
<g>
</g>
<g>
</g>
<g>
</g>
<g>
</g>
<g>
</g>
</svg>
